<mxfile host="app.diagrams.net" modified="2022-06-09T14:11:00.909Z" agent="5.0 (Windows NT 10.0; Win64; x64) AppleWebKit/537.36 (KHTML, like Gecko) Chrome/102.0.5005.63 Safari/537.36 Edg/102.0.1245.33" etag="7PiNaKurEVjnEZom-fFU" version="19.0.3" type="github">
  <diagram id="kU0hUeMjQg0mGXt2Nw3Z" name="Page-1">
    <mxGraphModel dx="1203" dy="731" grid="1" gridSize="10" guides="1" tooltips="1" connect="1" arrows="0" fold="1" page="1" pageScale="1" pageWidth="850" pageHeight="1100" math="0" shadow="0">
      <root>
        <mxCell id="0" />
        <mxCell id="1" parent="0" />
        <mxCell id="V4WVdfKS_ffeEVljyxt0-1" value="AWS Cloud" style="points=[[0,0],[0.25,0],[0.5,0],[0.75,0],[1,0],[1,0.25],[1,0.5],[1,0.75],[1,1],[0.75,1],[0.5,1],[0.25,1],[0,1],[0,0.75],[0,0.5],[0,0.25]];outlineConnect=0;gradientColor=none;html=1;whiteSpace=wrap;fontSize=12;fontStyle=0;container=1;pointerEvents=0;collapsible=0;recursiveResize=0;shape=mxgraph.aws4.group;grIcon=mxgraph.aws4.group_aws_cloud_alt;strokeColor=#232F3E;fillColor=none;verticalAlign=top;align=left;spacingLeft=30;fontColor=#232F3E;dashed=0;" vertex="1" parent="1">
          <mxGeometry x="10" y="50" width="820" height="1030" as="geometry" />
        </mxCell>
        <mxCell id="V4WVdfKS_ffeEVljyxt0-7" value="" style="outlineConnect=0;dashed=0;verticalLabelPosition=bottom;verticalAlign=top;align=center;html=1;shape=mxgraph.aws3.waf;fillColor=#759C3E;gradientColor=none;" vertex="1" parent="V4WVdfKS_ffeEVljyxt0-1">
          <mxGeometry x="230" y="70" width="50" height="60" as="geometry" />
        </mxCell>
        <mxCell id="V4WVdfKS_ffeEVljyxt0-11" value="" style="sketch=0;points=[[0,0,0],[0.25,0,0],[0.5,0,0],[0.75,0,0],[1,0,0],[0,1,0],[0.25,1,0],[0.5,1,0],[0.75,1,0],[1,1,0],[0,0.25,0],[0,0.5,0],[0,0.75,0],[1,0.25,0],[1,0.5,0],[1,0.75,0]];outlineConnect=0;fontColor=#232F3E;gradientColor=#945DF2;gradientDirection=north;fillColor=#5A30B5;strokeColor=#ffffff;dashed=0;verticalLabelPosition=bottom;verticalAlign=top;align=center;html=1;fontSize=12;fontStyle=0;aspect=fixed;shape=mxgraph.aws4.resourceIcon;resIcon=mxgraph.aws4.cloudfront;" vertex="1" parent="V4WVdfKS_ffeEVljyxt0-1">
          <mxGeometry x="386.75" y="130" width="46.5" height="46.5" as="geometry" />
        </mxCell>
        <mxCell id="V4WVdfKS_ffeEVljyxt0-5" value="" style="sketch=0;points=[[0,0,0],[0.25,0,0],[0.5,0,0],[0.75,0,0],[1,0,0],[0,1,0],[0.25,1,0],[0.5,1,0],[0.75,1,0],[1,1,0],[0,0.25,0],[0,0.5,0],[0,0.75,0],[1,0.25,0],[1,0.5,0],[1,0.75,0]];outlineConnect=0;fontColor=#232F3E;gradientColor=#945DF2;gradientDirection=north;fillColor=#5A30B5;strokeColor=#ffffff;dashed=0;verticalLabelPosition=bottom;verticalAlign=top;align=center;html=1;fontSize=12;fontStyle=0;aspect=fixed;shape=mxgraph.aws4.resourceIcon;resIcon=mxgraph.aws4.route_53;" vertex="1" parent="V4WVdfKS_ffeEVljyxt0-1">
          <mxGeometry x="410" y="20" width="50" height="50" as="geometry" />
        </mxCell>
        <mxCell id="V4WVdfKS_ffeEVljyxt0-10" value="" style="endArrow=classic;html=1;rounded=0;entryX=0.5;entryY=0;entryDx=0;entryDy=0;entryPerimeter=0;exitX=0;exitY=1;exitDx=0;exitDy=0;exitPerimeter=0;" edge="1" parent="V4WVdfKS_ffeEVljyxt0-1" source="V4WVdfKS_ffeEVljyxt0-5" target="V4WVdfKS_ffeEVljyxt0-7">
          <mxGeometry width="50" height="50" relative="1" as="geometry">
            <mxPoint x="400" y="150" as="sourcePoint" />
            <mxPoint x="450" y="100" as="targetPoint" />
          </mxGeometry>
        </mxCell>
        <mxCell id="V4WVdfKS_ffeEVljyxt0-6" value="" style="outlineConnect=0;dashed=0;verticalLabelPosition=bottom;verticalAlign=top;align=center;html=1;shape=mxgraph.aws3.bucket;fillColor=#E05243;gradientColor=none;" vertex="1" parent="V4WVdfKS_ffeEVljyxt0-1">
          <mxGeometry x="130" y="118.25" width="60" height="70" as="geometry" />
        </mxCell>
        <mxCell id="V4WVdfKS_ffeEVljyxt0-12" value="" style="endArrow=classic;html=1;rounded=0;exitX=0.5;exitY=1;exitDx=0;exitDy=0;exitPerimeter=0;entryX=0;entryY=0;entryDx=0;entryDy=0;entryPerimeter=0;" edge="1" parent="V4WVdfKS_ffeEVljyxt0-1" source="V4WVdfKS_ffeEVljyxt0-7" target="V4WVdfKS_ffeEVljyxt0-11">
          <mxGeometry width="50" height="50" relative="1" as="geometry">
            <mxPoint x="410" y="540" as="sourcePoint" />
            <mxPoint x="460" y="490" as="targetPoint" />
          </mxGeometry>
        </mxCell>
        <mxCell id="V4WVdfKS_ffeEVljyxt0-13" value="" style="endArrow=classic;html=1;rounded=0;entryX=0;entryY=0.5;entryDx=0;entryDy=0;entryPerimeter=0;" edge="1" parent="V4WVdfKS_ffeEVljyxt0-1" source="V4WVdfKS_ffeEVljyxt0-6" target="V4WVdfKS_ffeEVljyxt0-11">
          <mxGeometry width="50" height="50" relative="1" as="geometry">
            <mxPoint x="240" y="215.75" as="sourcePoint" />
            <mxPoint x="290" y="165.75" as="targetPoint" />
          </mxGeometry>
        </mxCell>
        <mxCell id="V4WVdfKS_ffeEVljyxt0-70" value="Amazon Route 53 &lt;br&gt;DNS Service" style="text;html=1;align=center;verticalAlign=middle;resizable=0;points=[];autosize=1;strokeColor=none;fillColor=none;fontColor=#000000;" vertex="1" parent="V4WVdfKS_ffeEVljyxt0-1">
          <mxGeometry x="470" y="30" width="110" height="30" as="geometry" />
        </mxCell>
        <mxCell id="V4WVdfKS_ffeEVljyxt0-71" value="AWS &lt;br&gt;Web Application Firewall" style="text;html=1;align=center;verticalAlign=middle;resizable=0;points=[];autosize=1;strokeColor=none;fillColor=none;fontColor=#000000;" vertex="1" parent="V4WVdfKS_ffeEVljyxt0-1">
          <mxGeometry x="85" y="70" width="150" height="30" as="geometry" />
        </mxCell>
        <mxCell id="V4WVdfKS_ffeEVljyxt0-72" value="www.example.com" style="text;html=1;align=center;verticalAlign=middle;resizable=0;points=[];autosize=1;strokeColor=none;fillColor=none;fontColor=#000000;strokeWidth=0;" vertex="1" parent="V4WVdfKS_ffeEVljyxt0-1">
          <mxGeometry x="280" y="50" width="120" height="20" as="geometry" />
        </mxCell>
        <mxCell id="V4WVdfKS_ffeEVljyxt0-74" value="S3 static &lt;br&gt;assests and Backup" style="text;html=1;align=center;verticalAlign=middle;resizable=0;points=[];autosize=1;strokeColor=none;fillColor=none;fontColor=#000000;" vertex="1" parent="V4WVdfKS_ffeEVljyxt0-1">
          <mxGeometry x="150" y="176.5" width="120" height="30" as="geometry" />
        </mxCell>
        <mxCell id="V4WVdfKS_ffeEVljyxt0-2" value="Region" style="points=[[0,0],[0.25,0],[0.5,0],[0.75,0],[1,0],[1,0.25],[1,0.5],[1,0.75],[1,1],[0.75,1],[0.5,1],[0.25,1],[0,1],[0,0.75],[0,0.5],[0,0.25]];outlineConnect=0;gradientColor=none;html=1;whiteSpace=wrap;fontSize=12;fontStyle=0;container=1;pointerEvents=0;collapsible=0;recursiveResize=0;shape=mxgraph.aws4.group;grIcon=mxgraph.aws4.group_region;strokeColor=#147EBA;fillColor=none;verticalAlign=top;align=left;spacingLeft=30;fontColor=#147EBA;dashed=1;" vertex="1" parent="1">
          <mxGeometry x="30" y="260" width="780" height="800" as="geometry" />
        </mxCell>
        <mxCell id="V4WVdfKS_ffeEVljyxt0-3" value="VPC" style="points=[[0,0],[0.25,0],[0.5,0],[0.75,0],[1,0],[1,0.25],[1,0.5],[1,0.75],[1,1],[0.75,1],[0.5,1],[0.25,1],[0,1],[0,0.75],[0,0.5],[0,0.25]];outlineConnect=0;gradientColor=none;html=1;whiteSpace=wrap;fontSize=12;fontStyle=0;container=1;pointerEvents=0;collapsible=0;recursiveResize=0;shape=mxgraph.aws4.group;grIcon=mxgraph.aws4.group_vpc;strokeColor=#248814;fillColor=none;verticalAlign=top;align=left;spacingLeft=30;fontColor=#AAB7B8;dashed=0;" vertex="1" parent="1">
          <mxGeometry x="60" y="280" width="740" height="770" as="geometry" />
        </mxCell>
        <mxCell id="V4WVdfKS_ffeEVljyxt0-44" value="&lt;font color=&quot;#000000&quot;&gt;Private subnet&lt;/font&gt;" style="points=[[0,0],[0.25,0],[0.5,0],[0.75,0],[1,0],[1,0.25],[1,0.5],[1,0.75],[1,1],[0.75,1],[0.5,1],[0.25,1],[0,1],[0,0.75],[0,0.5],[0,0.25]];outlineConnect=0;gradientColor=none;html=1;whiteSpace=wrap;fontSize=12;fontStyle=0;container=1;pointerEvents=0;collapsible=0;recursiveResize=0;shape=mxgraph.aws4.group;grIcon=mxgraph.aws4.group_security_group;grStroke=0;strokeColor=#147EBA;fillColor=#FFE599;verticalAlign=top;align=left;spacingLeft=30;fontColor=#147EBA;dashed=0;" vertex="1" parent="V4WVdfKS_ffeEVljyxt0-3">
          <mxGeometry x="70" y="440" width="180" height="130" as="geometry" />
        </mxCell>
        <mxCell id="V4WVdfKS_ffeEVljyxt0-50" value="" style="sketch=0;points=[[0,0,0],[0.25,0,0],[0.5,0,0],[0.75,0,0],[1,0,0],[0,1,0],[0.25,1,0],[0.5,1,0],[0.75,1,0],[1,1,0],[0,0.25,0],[0,0.5,0],[0,0.75,0],[1,0.25,0],[1,0.5,0],[1,0.75,0]];outlineConnect=0;fontColor=#232F3E;gradientColor=#F78E04;gradientDirection=north;fillColor=#D05C17;strokeColor=#ffffff;dashed=0;verticalLabelPosition=bottom;verticalAlign=top;align=center;html=1;fontSize=12;fontStyle=0;aspect=fixed;shape=mxgraph.aws4.resourceIcon;resIcon=mxgraph.aws4.ec2;" vertex="1" parent="V4WVdfKS_ffeEVljyxt0-44">
          <mxGeometry x="30" y="60" width="40" height="40" as="geometry" />
        </mxCell>
        <mxCell id="V4WVdfKS_ffeEVljyxt0-51" value="" style="sketch=0;points=[[0,0,0],[0.25,0,0],[0.5,0,0],[0.75,0,0],[1,0,0],[0,1,0],[0.25,1,0],[0.5,1,0],[0.75,1,0],[1,1,0],[0,0.25,0],[0,0.5,0],[0,0.75,0],[1,0.25,0],[1,0.5,0],[1,0.75,0]];outlineConnect=0;fontColor=#232F3E;gradientColor=#F78E04;gradientDirection=north;fillColor=#D05C17;strokeColor=#ffffff;dashed=0;verticalLabelPosition=bottom;verticalAlign=top;align=center;html=1;fontSize=12;fontStyle=0;aspect=fixed;shape=mxgraph.aws4.resourceIcon;resIcon=mxgraph.aws4.ec2;" vertex="1" parent="V4WVdfKS_ffeEVljyxt0-44">
          <mxGeometry x="93.25" y="60" width="40" height="40" as="geometry" />
        </mxCell>
        <mxCell id="V4WVdfKS_ffeEVljyxt0-56" value="Private subnet" style="points=[[0,0],[0.25,0],[0.5,0],[0.75,0],[1,0],[1,0.25],[1,0.5],[1,0.75],[1,1],[0.75,1],[0.5,1],[0.25,1],[0,1],[0,0.75],[0,0.5],[0,0.25]];outlineConnect=0;gradientColor=none;html=1;whiteSpace=wrap;fontSize=12;fontStyle=0;container=1;pointerEvents=0;collapsible=0;recursiveResize=0;shape=mxgraph.aws4.group;grIcon=mxgraph.aws4.group_security_group;grStroke=0;strokeColor=#147EBA;fillColor=#E6F2F8;verticalAlign=top;align=left;spacingLeft=30;fontColor=#147EBA;dashed=0;" vertex="1" parent="V4WVdfKS_ffeEVljyxt0-3">
          <mxGeometry x="70" y="600" width="180" height="120" as="geometry" />
        </mxCell>
        <mxCell id="V4WVdfKS_ffeEVljyxt0-62" value="" style="outlineConnect=0;dashed=0;verticalLabelPosition=bottom;verticalAlign=top;align=center;html=1;shape=mxgraph.aws3.sql_master;fillColor=#2E73B8;gradientColor=none;fontColor=#000000;" vertex="1" parent="V4WVdfKS_ffeEVljyxt0-56">
          <mxGeometry x="50" y="27.75" width="60" height="64.5" as="geometry" />
        </mxCell>
        <mxCell id="V4WVdfKS_ffeEVljyxt0-18" value="Availability Zone" style="fillColor=none;strokeColor=#147EBA;dashed=1;verticalAlign=top;fontStyle=0;fontColor=#147EBA;" vertex="1" parent="V4WVdfKS_ffeEVljyxt0-56">
          <mxGeometry x="-10" y="-570" width="200" height="700" as="geometry" />
        </mxCell>
        <mxCell id="V4WVdfKS_ffeEVljyxt0-31" value="Private subnet" style="points=[[0,0],[0.25,0],[0.5,0],[0.75,0],[1,0],[1,0.25],[1,0.5],[1,0.75],[1,1],[0.75,1],[0.5,1],[0.25,1],[0,1],[0,0.75],[0,0.5],[0,0.25]];outlineConnect=0;gradientColor=none;html=1;whiteSpace=wrap;fontSize=12;fontStyle=0;container=1;pointerEvents=0;collapsible=0;recursiveResize=0;shape=mxgraph.aws4.group;grIcon=mxgraph.aws4.group_security_group;grStroke=0;strokeColor=#147EBA;fillColor=#E6F2F8;verticalAlign=top;align=left;spacingLeft=30;fontColor=#147EBA;dashed=0;" vertex="1" parent="V4WVdfKS_ffeEVljyxt0-3">
          <mxGeometry x="70" y="240" width="180" height="130" as="geometry" />
        </mxCell>
        <mxCell id="V4WVdfKS_ffeEVljyxt0-77" value="" style="edgeStyle=orthogonalEdgeStyle;rounded=0;orthogonalLoop=1;jettySize=auto;html=1;fontColor=#000000;" edge="1" parent="V4WVdfKS_ffeEVljyxt0-3" source="V4WVdfKS_ffeEVljyxt0-4" target="V4WVdfKS_ffeEVljyxt0-17">
          <mxGeometry relative="1" as="geometry" />
        </mxCell>
        <mxCell id="V4WVdfKS_ffeEVljyxt0-4" value="Internet&#xa;gateway" style="sketch=0;outlineConnect=0;fontColor=#232F3E;gradientColor=none;strokeColor=#232F3E;fillColor=#ffffff;dashed=0;verticalLabelPosition=bottom;verticalAlign=top;align=center;html=1;fontSize=12;fontStyle=0;aspect=fixed;shape=mxgraph.aws4.resourceIcon;resIcon=mxgraph.aws4.internet_gateway;" vertex="1" parent="V4WVdfKS_ffeEVljyxt0-3">
          <mxGeometry x="335" y="-30" width="60" height="60" as="geometry" />
        </mxCell>
        <mxCell id="V4WVdfKS_ffeEVljyxt0-16" value="Security group" style="fillColor=none;strokeColor=#DD3522;verticalAlign=top;fontStyle=0;fontColor=#DD3522;" vertex="1" parent="V4WVdfKS_ffeEVljyxt0-3">
          <mxGeometry x="310" y="70" width="120" height="110" as="geometry" />
        </mxCell>
        <mxCell id="V4WVdfKS_ffeEVljyxt0-17" value="" style="sketch=0;outlineConnect=0;fontColor=#232F3E;gradientColor=none;fillColor=#4D27AA;strokeColor=none;dashed=0;verticalLabelPosition=bottom;verticalAlign=top;align=center;html=1;fontSize=12;fontStyle=0;aspect=fixed;pointerEvents=1;shape=mxgraph.aws4.application_load_balancer;" vertex="1" parent="V4WVdfKS_ffeEVljyxt0-3">
          <mxGeometry x="345" y="100" width="50" height="50" as="geometry" />
        </mxCell>
        <mxCell id="V4WVdfKS_ffeEVljyxt0-24" value="Availability Zone" style="fillColor=none;strokeColor=#147EBA;dashed=1;verticalAlign=top;fontStyle=0;fontColor=#147EBA;" vertex="1" parent="V4WVdfKS_ffeEVljyxt0-3">
          <mxGeometry x="460" y="20" width="200" height="710" as="geometry" />
        </mxCell>
        <mxCell id="V4WVdfKS_ffeEVljyxt0-25" value="Public subnet" style="points=[[0,0],[0.25,0],[0.5,0],[0.75,0],[1,0],[1,0.25],[1,0.5],[1,0.75],[1,1],[0.75,1],[0.5,1],[0.25,1],[0,1],[0,0.75],[0,0.5],[0,0.25]];outlineConnect=0;gradientColor=none;html=1;whiteSpace=wrap;fontSize=12;fontStyle=0;container=1;pointerEvents=0;collapsible=0;recursiveResize=0;shape=mxgraph.aws4.group;grIcon=mxgraph.aws4.group_security_group;grStroke=0;strokeColor=#248814;fillColor=#E9F3E6;verticalAlign=top;align=left;spacingLeft=30;fontColor=#248814;dashed=0;" vertex="1" parent="V4WVdfKS_ffeEVljyxt0-3">
          <mxGeometry x="70" y="60" width="180" height="140" as="geometry" />
        </mxCell>
        <mxCell id="V4WVdfKS_ffeEVljyxt0-26" value="Public subnet" style="points=[[0,0],[0.25,0],[0.5,0],[0.75,0],[1,0],[1,0.25],[1,0.5],[1,0.75],[1,1],[0.75,1],[0.5,1],[0.25,1],[0,1],[0,0.75],[0,0.5],[0,0.25]];outlineConnect=0;gradientColor=none;html=1;whiteSpace=wrap;fontSize=12;fontStyle=0;container=1;pointerEvents=0;collapsible=0;recursiveResize=0;shape=mxgraph.aws4.group;grIcon=mxgraph.aws4.group_security_group;grStroke=0;strokeColor=#248814;fillColor=#E9F3E6;verticalAlign=top;align=left;spacingLeft=30;fontColor=#248814;dashed=0;" vertex="1" parent="V4WVdfKS_ffeEVljyxt0-3">
          <mxGeometry x="470" y="50" width="180" height="150" as="geometry" />
        </mxCell>
        <mxCell id="V4WVdfKS_ffeEVljyxt0-27" value="Security group" style="fillColor=none;strokeColor=#DD3522;verticalAlign=top;fontStyle=0;fontColor=#DD3522;" vertex="1" parent="V4WVdfKS_ffeEVljyxt0-3">
          <mxGeometry x="80" y="90" width="160" height="100" as="geometry" />
        </mxCell>
        <mxCell id="V4WVdfKS_ffeEVljyxt0-29" value="" style="outlineConnect=0;dashed=0;verticalLabelPosition=bottom;verticalAlign=top;align=center;html=1;shape=mxgraph.aws3.ec2;fillColor=#F58534;gradientColor=none;" vertex="1" parent="V4WVdfKS_ffeEVljyxt0-3">
          <mxGeometry x="130" y="114.25" width="43.25" height="51.5" as="geometry" />
        </mxCell>
        <mxCell id="V4WVdfKS_ffeEVljyxt0-30" value="" style="sketch=0;outlineConnect=0;fontColor=#232F3E;gradientColor=none;fillColor=#4D27AA;strokeColor=none;dashed=0;verticalLabelPosition=bottom;verticalAlign=top;align=center;html=1;fontSize=12;fontStyle=0;aspect=fixed;pointerEvents=1;shape=mxgraph.aws4.nat_gateway;" vertex="1" parent="V4WVdfKS_ffeEVljyxt0-3">
          <mxGeometry x="525.5" y="81" width="69" height="69" as="geometry" />
        </mxCell>
        <mxCell id="V4WVdfKS_ffeEVljyxt0-32" value="Private subnet" style="points=[[0,0],[0.25,0],[0.5,0],[0.75,0],[1,0],[1,0.25],[1,0.5],[1,0.75],[1,1],[0.75,1],[0.5,1],[0.25,1],[0,1],[0,0.75],[0,0.5],[0,0.25]];outlineConnect=0;gradientColor=none;html=1;whiteSpace=wrap;fontSize=12;fontStyle=0;container=1;pointerEvents=0;collapsible=0;recursiveResize=0;shape=mxgraph.aws4.group;grIcon=mxgraph.aws4.group_security_group;grStroke=0;strokeColor=#147EBA;fillColor=#E6F2F8;verticalAlign=top;align=left;spacingLeft=30;fontColor=#147EBA;dashed=0;" vertex="1" parent="V4WVdfKS_ffeEVljyxt0-3">
          <mxGeometry x="470" y="240" width="180" height="130" as="geometry" />
        </mxCell>
        <mxCell id="V4WVdfKS_ffeEVljyxt0-38" value="" style="sketch=0;points=[[0,0,0],[0.25,0,0],[0.5,0,0],[0.75,0,0],[1,0,0],[0,1,0],[0.25,1,0],[0.5,1,0],[0.75,1,0],[1,1,0],[0,0.25,0],[0,0.5,0],[0,0.75,0],[1,0.25,0],[1,0.5,0],[1,0.75,0]];outlineConnect=0;fontColor=#232F3E;gradientColor=#F78E04;gradientDirection=north;fillColor=#D05C17;strokeColor=#ffffff;dashed=0;verticalLabelPosition=bottom;verticalAlign=top;align=center;html=1;fontSize=12;fontStyle=0;aspect=fixed;shape=mxgraph.aws4.resourceIcon;resIcon=mxgraph.aws4.ec2;" vertex="1" parent="V4WVdfKS_ffeEVljyxt0-3">
          <mxGeometry x="554.5" y="285" width="40" height="40" as="geometry" />
        </mxCell>
        <mxCell id="V4WVdfKS_ffeEVljyxt0-39" value="" style="endArrow=classic;html=1;rounded=0;exitX=0.5;exitY=1;exitDx=0;exitDy=0;" edge="1" parent="V4WVdfKS_ffeEVljyxt0-3" source="V4WVdfKS_ffeEVljyxt0-16" target="V4WVdfKS_ffeEVljyxt0-31">
          <mxGeometry width="50" height="50" relative="1" as="geometry">
            <mxPoint x="220" y="270" as="sourcePoint" />
            <mxPoint x="160" y="220" as="targetPoint" />
            <Array as="points">
              <mxPoint x="370" y="220" />
              <mxPoint x="160" y="220" />
            </Array>
          </mxGeometry>
        </mxCell>
        <mxCell id="V4WVdfKS_ffeEVljyxt0-41" value="" style="endArrow=classic;html=1;rounded=0;entryX=0.5;entryY=0;entryDx=0;entryDy=0;" edge="1" parent="V4WVdfKS_ffeEVljyxt0-3" target="V4WVdfKS_ffeEVljyxt0-32">
          <mxGeometry width="50" height="50" relative="1" as="geometry">
            <mxPoint x="370" y="220" as="sourcePoint" />
            <mxPoint x="460" y="190" as="targetPoint" />
            <Array as="points">
              <mxPoint x="560" y="220" />
            </Array>
          </mxGeometry>
        </mxCell>
        <mxCell id="V4WVdfKS_ffeEVljyxt0-42" value="Security group" style="fillColor=none;strokeColor=#DD3522;verticalAlign=top;fontStyle=0;fontColor=#DD3522;" vertex="1" parent="V4WVdfKS_ffeEVljyxt0-3">
          <mxGeometry x="320" y="380" width="90" height="80" as="geometry" />
        </mxCell>
        <mxCell id="V4WVdfKS_ffeEVljyxt0-43" value="" style="sketch=0;outlineConnect=0;fontColor=#232F3E;gradientColor=none;fillColor=#4D27AA;strokeColor=none;dashed=0;verticalLabelPosition=bottom;verticalAlign=top;align=center;html=1;fontSize=12;fontStyle=0;aspect=fixed;pointerEvents=1;shape=mxgraph.aws4.application_load_balancer;" vertex="1" parent="V4WVdfKS_ffeEVljyxt0-3">
          <mxGeometry x="350.18" y="405" width="30" height="30" as="geometry" />
        </mxCell>
        <mxCell id="V4WVdfKS_ffeEVljyxt0-45" value="&lt;font color=&quot;#000000&quot;&gt;Private subnet&lt;/font&gt;" style="points=[[0,0],[0.25,0],[0.5,0],[0.75,0],[1,0],[1,0.25],[1,0.5],[1,0.75],[1,1],[0.75,1],[0.5,1],[0.25,1],[0,1],[0,0.75],[0,0.5],[0,0.25]];outlineConnect=0;gradientColor=none;html=1;whiteSpace=wrap;fontSize=12;fontStyle=0;container=1;pointerEvents=0;collapsible=0;recursiveResize=0;shape=mxgraph.aws4.group;grIcon=mxgraph.aws4.group_security_group;grStroke=0;strokeColor=#147EBA;fillColor=#FFE599;verticalAlign=top;align=left;spacingLeft=30;fontColor=#147EBA;dashed=0;" vertex="1" parent="V4WVdfKS_ffeEVljyxt0-3">
          <mxGeometry x="470" y="440" width="180" height="130" as="geometry" />
        </mxCell>
        <mxCell id="V4WVdfKS_ffeEVljyxt0-52" value="" style="sketch=0;points=[[0,0,0],[0.25,0,0],[0.5,0,0],[0.75,0,0],[1,0,0],[0,1,0],[0.25,1,0],[0.5,1,0],[0.75,1,0],[1,1,0],[0,0.25,0],[0,0.5,0],[0,0.75,0],[1,0.25,0],[1,0.5,0],[1,0.75,0]];outlineConnect=0;fontColor=#232F3E;gradientColor=#F78E04;gradientDirection=north;fillColor=#D05C17;strokeColor=#ffffff;dashed=0;verticalLabelPosition=bottom;verticalAlign=top;align=center;html=1;fontSize=12;fontStyle=0;aspect=fixed;shape=mxgraph.aws4.resourceIcon;resIcon=mxgraph.aws4.ec2;" vertex="1" parent="V4WVdfKS_ffeEVljyxt0-45">
          <mxGeometry x="20" y="60" width="40" height="40" as="geometry" />
        </mxCell>
        <mxCell id="V4WVdfKS_ffeEVljyxt0-53" value="" style="sketch=0;points=[[0,0,0],[0.25,0,0],[0.5,0,0],[0.75,0,0],[1,0,0],[0,1,0],[0.25,1,0],[0.5,1,0],[0.75,1,0],[1,1,0],[0,0.25,0],[0,0.5,0],[0,0.75,0],[1,0.25,0],[1,0.5,0],[1,0.75,0]];outlineConnect=0;fontColor=#232F3E;gradientColor=#F78E04;gradientDirection=north;fillColor=#D05C17;strokeColor=#ffffff;dashed=0;verticalLabelPosition=bottom;verticalAlign=top;align=center;html=1;fontSize=12;fontStyle=0;aspect=fixed;shape=mxgraph.aws4.resourceIcon;resIcon=mxgraph.aws4.ec2;" vertex="1" parent="V4WVdfKS_ffeEVljyxt0-45">
          <mxGeometry x="83.25" y="60" width="40" height="40" as="geometry" />
        </mxCell>
        <mxCell id="V4WVdfKS_ffeEVljyxt0-34" value="Auto Scaling group" style="points=[[0,0],[0.25,0],[0.5,0],[0.75,0],[1,0],[1,0.25],[1,0.5],[1,0.75],[1,1],[0.75,1],[0.5,1],[0.25,1],[0,1],[0,0.75],[0,0.5],[0,0.25]];outlineConnect=0;gradientColor=none;html=1;whiteSpace=wrap;fontSize=12;fontStyle=0;container=1;pointerEvents=0;collapsible=0;recursiveResize=0;shape=mxgraph.aws4.groupCenter;grIcon=mxgraph.aws4.group_auto_scaling_group;grStroke=1;strokeColor=#D86613;fillColor=none;verticalAlign=top;align=center;fontColor=#D86613;dashed=1;spacingTop=25;" vertex="1" parent="V4WVdfKS_ffeEVljyxt0-3">
          <mxGeometry x="95" y="270" width="550" height="90" as="geometry" />
        </mxCell>
        <mxCell id="V4WVdfKS_ffeEVljyxt0-33" value="" style="fillColor=none;strokeColor=#DD3522;verticalAlign=top;fontStyle=0;fontColor=#DD3522;" vertex="1" parent="V4WVdfKS_ffeEVljyxt0-34">
          <mxGeometry x="-10" y="-10" width="560" height="100" as="geometry" />
        </mxCell>
        <mxCell id="V4WVdfKS_ffeEVljyxt0-35" value="" style="sketch=0;points=[[0,0,0],[0.25,0,0],[0.5,0,0],[0.75,0,0],[1,0,0],[0,1,0],[0.25,1,0],[0.5,1,0],[0.75,1,0],[1,1,0],[0,0.25,0],[0,0.5,0],[0,0.75,0],[1,0.25,0],[1,0.5,0],[1,0.75,0]];outlineConnect=0;fontColor=#232F3E;gradientColor=#F78E04;gradientDirection=north;fillColor=#D05C17;strokeColor=#ffffff;dashed=0;verticalLabelPosition=bottom;verticalAlign=top;align=center;html=1;fontSize=12;fontStyle=0;aspect=fixed;shape=mxgraph.aws4.resourceIcon;resIcon=mxgraph.aws4.ec2;" vertex="1" parent="V4WVdfKS_ffeEVljyxt0-34">
          <mxGeometry x="15" y="15" width="40" height="40" as="geometry" />
        </mxCell>
        <mxCell id="V4WVdfKS_ffeEVljyxt0-36" value="" style="sketch=0;points=[[0,0,0],[0.25,0,0],[0.5,0,0],[0.75,0,0],[1,0,0],[0,1,0],[0.25,1,0],[0.5,1,0],[0.75,1,0],[1,1,0],[0,0.25,0],[0,0.5,0],[0,0.75,0],[1,0.25,0],[1,0.5,0],[1,0.75,0]];outlineConnect=0;fontColor=#232F3E;gradientColor=#F78E04;gradientDirection=north;fillColor=#D05C17;strokeColor=#ffffff;dashed=0;verticalLabelPosition=bottom;verticalAlign=top;align=center;html=1;fontSize=12;fontStyle=0;aspect=fixed;shape=mxgraph.aws4.resourceIcon;resIcon=mxgraph.aws4.ec2;" vertex="1" parent="V4WVdfKS_ffeEVljyxt0-34">
          <mxGeometry x="78.25" y="15" width="40" height="40" as="geometry" />
        </mxCell>
        <mxCell id="V4WVdfKS_ffeEVljyxt0-37" value="" style="sketch=0;points=[[0,0,0],[0.25,0,0],[0.5,0,0],[0.75,0,0],[1,0,0],[0,1,0],[0.25,1,0],[0.5,1,0],[0.75,1,0],[1,1,0],[0,0.25,0],[0,0.5,0],[0,0.75,0],[1,0.25,0],[1,0.5,0],[1,0.75,0]];outlineConnect=0;fontColor=#232F3E;gradientColor=#F78E04;gradientDirection=north;fillColor=#D05C17;strokeColor=#ffffff;dashed=0;verticalLabelPosition=bottom;verticalAlign=top;align=center;html=1;fontSize=12;fontStyle=0;aspect=fixed;shape=mxgraph.aws4.resourceIcon;resIcon=mxgraph.aws4.ec2;" vertex="1" parent="V4WVdfKS_ffeEVljyxt0-34">
          <mxGeometry x="395" y="15" width="40" height="40" as="geometry" />
        </mxCell>
        <mxCell id="V4WVdfKS_ffeEVljyxt0-81" value="EC2 instances" style="text;html=1;strokeColor=none;fillColor=none;align=center;verticalAlign=middle;whiteSpace=wrap;rounded=0;fontColor=#000000;" vertex="1" parent="V4WVdfKS_ffeEVljyxt0-34">
          <mxGeometry x="15" y="55" width="98.37" height="30" as="geometry" />
        </mxCell>
        <mxCell id="V4WVdfKS_ffeEVljyxt0-83" value="EC2 Instances" style="text;html=1;strokeColor=none;fillColor=none;align=center;verticalAlign=middle;whiteSpace=wrap;rounded=0;fontColor=#000000;" vertex="1" parent="V4WVdfKS_ffeEVljyxt0-34">
          <mxGeometry x="405" y="55" width="98.37" height="30" as="geometry" />
        </mxCell>
        <mxCell id="V4WVdfKS_ffeEVljyxt0-86" value="Web Tier" style="text;html=1;strokeColor=none;fillColor=none;align=center;verticalAlign=middle;whiteSpace=wrap;rounded=0;fontColor=#000000;" vertex="1" parent="V4WVdfKS_ffeEVljyxt0-34">
          <mxGeometry x="221" y="55" width="98.37" height="30" as="geometry" />
        </mxCell>
        <mxCell id="V4WVdfKS_ffeEVljyxt0-46" value="" style="endArrow=classic;html=1;rounded=0;fontColor=#000000;exitX=0.5;exitY=1;exitDx=0;exitDy=0;exitPerimeter=0;entryX=0;entryY=0.5;entryDx=0;entryDy=0;" edge="1" parent="V4WVdfKS_ffeEVljyxt0-3" source="V4WVdfKS_ffeEVljyxt0-36" target="V4WVdfKS_ffeEVljyxt0-42">
          <mxGeometry width="50" height="50" relative="1" as="geometry">
            <mxPoint x="220" y="310" as="sourcePoint" />
            <mxPoint x="290" y="260" as="targetPoint" />
            <Array as="points">
              <mxPoint x="193" y="420" />
            </Array>
          </mxGeometry>
        </mxCell>
        <mxCell id="V4WVdfKS_ffeEVljyxt0-47" value="" style="endArrow=classic;html=1;rounded=0;fontColor=#000000;exitX=0.5;exitY=1;exitDx=0;exitDy=0;exitPerimeter=0;entryX=1;entryY=0.5;entryDx=0;entryDy=0;" edge="1" parent="V4WVdfKS_ffeEVljyxt0-3" source="V4WVdfKS_ffeEVljyxt0-37" target="V4WVdfKS_ffeEVljyxt0-42">
          <mxGeometry width="50" height="50" relative="1" as="geometry">
            <mxPoint x="380" y="450" as="sourcePoint" />
            <mxPoint x="430" y="400" as="targetPoint" />
            <Array as="points">
              <mxPoint x="510" y="420" />
            </Array>
          </mxGeometry>
        </mxCell>
        <mxCell id="V4WVdfKS_ffeEVljyxt0-48" value="" style="endArrow=classic;html=1;rounded=0;exitX=0.5;exitY=1;exitDx=0;exitDy=0;" edge="1" parent="V4WVdfKS_ffeEVljyxt0-3">
          <mxGeometry width="50" height="50" relative="1" as="geometry">
            <mxPoint x="360" y="460" as="sourcePoint" />
            <mxPoint x="150" y="500" as="targetPoint" />
            <Array as="points">
              <mxPoint x="360" y="480" />
              <mxPoint x="150" y="480" />
            </Array>
          </mxGeometry>
        </mxCell>
        <mxCell id="V4WVdfKS_ffeEVljyxt0-49" value="" style="endArrow=classic;html=1;rounded=0;" edge="1" parent="V4WVdfKS_ffeEVljyxt0-3">
          <mxGeometry width="50" height="50" relative="1" as="geometry">
            <mxPoint x="360" y="480" as="sourcePoint" />
            <mxPoint x="550" y="500" as="targetPoint" />
            <Array as="points">
              <mxPoint x="550" y="480" />
            </Array>
          </mxGeometry>
        </mxCell>
        <mxCell id="V4WVdfKS_ffeEVljyxt0-54" value="" style="fillColor=none;strokeColor=#DD3522;verticalAlign=top;fontStyle=0;fontColor=#DD3522;" vertex="1" parent="V4WVdfKS_ffeEVljyxt0-3">
          <mxGeometry x="80" y="470" width="550" height="90" as="geometry" />
        </mxCell>
        <mxCell id="V4WVdfKS_ffeEVljyxt0-61" value="Private subnet" style="points=[[0,0],[0.25,0],[0.5,0],[0.75,0],[1,0],[1,0.25],[1,0.5],[1,0.75],[1,1],[0.75,1],[0.5,1],[0.25,1],[0,1],[0,0.75],[0,0.5],[0,0.25]];outlineConnect=0;gradientColor=none;html=1;whiteSpace=wrap;fontSize=12;fontStyle=0;container=1;pointerEvents=0;collapsible=0;recursiveResize=0;shape=mxgraph.aws4.group;grIcon=mxgraph.aws4.group_security_group;grStroke=0;strokeColor=#147EBA;fillColor=#E6F2F8;verticalAlign=top;align=left;spacingLeft=30;fontColor=#147EBA;dashed=0;" vertex="1" parent="V4WVdfKS_ffeEVljyxt0-3">
          <mxGeometry x="470" y="595" width="180" height="125" as="geometry" />
        </mxCell>
        <mxCell id="V4WVdfKS_ffeEVljyxt0-63" value="" style="outlineConnect=0;dashed=0;verticalLabelPosition=bottom;verticalAlign=top;align=center;html=1;shape=mxgraph.aws3.rds_db_instance_standby_multi_az;fillColor=#2E73B8;gradientColor=none;fontColor=#000000;" vertex="1" parent="V4WVdfKS_ffeEVljyxt0-3">
          <mxGeometry x="500" y="627.75" width="49.5" height="66" as="geometry" />
        </mxCell>
        <mxCell id="V4WVdfKS_ffeEVljyxt0-65" value="" style="outlineConnect=0;dashed=0;verticalLabelPosition=bottom;verticalAlign=top;align=center;html=1;shape=mxgraph.aws3.rds_db_instance_read_replica;fillColor=#2E73B8;gradientColor=none;fontColor=#000000;" vertex="1" parent="V4WVdfKS_ffeEVljyxt0-3">
          <mxGeometry x="580.5" y="627.75" width="49.5" height="66" as="geometry" />
        </mxCell>
        <mxCell id="V4WVdfKS_ffeEVljyxt0-66" value="" style="endArrow=classic;html=1;rounded=0;" edge="1" parent="V4WVdfKS_ffeEVljyxt0-3">
          <mxGeometry width="50" height="50" relative="1" as="geometry">
            <mxPoint x="360" y="560" as="sourcePoint" />
            <mxPoint x="149.5" y="630" as="targetPoint" />
            <Array as="points">
              <mxPoint x="359.5" y="610" />
              <mxPoint x="149.5" y="610" />
            </Array>
          </mxGeometry>
        </mxCell>
        <mxCell id="V4WVdfKS_ffeEVljyxt0-68" value="" style="endArrow=classic;html=1;rounded=0;fontColor=#000000;entryX=0.016;entryY=0.336;entryDx=0;entryDy=0;entryPerimeter=0;" edge="1" parent="V4WVdfKS_ffeEVljyxt0-3" target="V4WVdfKS_ffeEVljyxt0-63">
          <mxGeometry width="50" height="50" relative="1" as="geometry">
            <mxPoint x="180" y="650" as="sourcePoint" />
            <mxPoint x="400" y="720" as="targetPoint" />
          </mxGeometry>
        </mxCell>
        <mxCell id="V4WVdfKS_ffeEVljyxt0-55" value="Auto Scaling group" style="points=[[0,0],[0.25,0],[0.5,0],[0.75,0],[1,0],[1,0.25],[1,0.5],[1,0.75],[1,1],[0.75,1],[0.5,1],[0.25,1],[0,1],[0,0.75],[0,0.5],[0,0.25]];outlineConnect=0;gradientColor=none;html=1;whiteSpace=wrap;fontSize=12;fontStyle=0;container=1;pointerEvents=0;collapsible=0;recursiveResize=0;shape=mxgraph.aws4.groupCenter;grIcon=mxgraph.aws4.group_auto_scaling_group;grStroke=1;strokeColor=#D86613;fillColor=none;verticalAlign=top;align=center;fontColor=#D86613;dashed=1;spacingTop=25;" vertex="1" parent="V4WVdfKS_ffeEVljyxt0-3">
          <mxGeometry x="95" y="490" width="525" height="60" as="geometry" />
        </mxCell>
        <mxCell id="V4WVdfKS_ffeEVljyxt0-87" value="App Tier" style="text;html=1;strokeColor=none;fillColor=none;align=center;verticalAlign=middle;whiteSpace=wrap;rounded=0;fontColor=#000000;" vertex="1" parent="V4WVdfKS_ffeEVljyxt0-55">
          <mxGeometry x="217.9" y="50" width="89.19" height="20" as="geometry" />
        </mxCell>
        <mxCell id="V4WVdfKS_ffeEVljyxt0-78" value="Bastion Host" style="text;html=1;strokeColor=none;fillColor=none;align=center;verticalAlign=middle;whiteSpace=wrap;rounded=0;fontColor=#000000;" vertex="1" parent="V4WVdfKS_ffeEVljyxt0-3">
          <mxGeometry x="110.81" y="160" width="98.37" height="30" as="geometry" />
        </mxCell>
        <mxCell id="V4WVdfKS_ffeEVljyxt0-79" value="NAT Gateway" style="text;html=1;strokeColor=none;fillColor=none;align=center;verticalAlign=middle;whiteSpace=wrap;rounded=0;fontColor=#000000;" vertex="1" parent="V4WVdfKS_ffeEVljyxt0-3">
          <mxGeometry x="510.81999999999994" y="160" width="98.37" height="30" as="geometry" />
        </mxCell>
        <mxCell id="V4WVdfKS_ffeEVljyxt0-80" value="Application Load Balancer" style="text;html=1;strokeColor=none;fillColor=none;align=center;verticalAlign=middle;whiteSpace=wrap;rounded=0;fontColor=#000000;" vertex="1" parent="V4WVdfKS_ffeEVljyxt0-3">
          <mxGeometry x="320.82" y="150" width="98.37" height="30" as="geometry" />
        </mxCell>
        <mxCell id="V4WVdfKS_ffeEVljyxt0-82" value="Security Group" style="text;html=1;strokeColor=none;fillColor=none;align=center;verticalAlign=middle;whiteSpace=wrap;rounded=0;fontColor=#000000;" vertex="1" parent="V4WVdfKS_ffeEVljyxt0-3">
          <mxGeometry x="316" y="240" width="98.37" height="30" as="geometry" />
        </mxCell>
        <mxCell id="V4WVdfKS_ffeEVljyxt0-84" value="Application Load Balancer" style="text;html=1;strokeColor=none;fillColor=none;align=center;verticalAlign=middle;whiteSpace=wrap;rounded=0;fontColor=#000000;" vertex="1" parent="V4WVdfKS_ffeEVljyxt0-3">
          <mxGeometry x="323.19" y="440" width="84" height="20" as="geometry" />
        </mxCell>
        <mxCell id="V4WVdfKS_ffeEVljyxt0-89" value="Master DB" style="text;html=1;strokeColor=none;fillColor=none;align=center;verticalAlign=middle;whiteSpace=wrap;rounded=0;fontColor=#000000;" vertex="1" parent="V4WVdfKS_ffeEVljyxt0-3">
          <mxGeometry x="121.62" y="690" width="60" height="30" as="geometry" />
        </mxCell>
        <mxCell id="V4WVdfKS_ffeEVljyxt0-90" value="Standby DB" style="text;html=1;strokeColor=none;fillColor=none;align=center;verticalAlign=middle;whiteSpace=wrap;rounded=0;fontColor=#000000;" vertex="1" parent="V4WVdfKS_ffeEVljyxt0-3">
          <mxGeometry x="470" y="700" width="80" height="10" as="geometry" />
        </mxCell>
        <mxCell id="V4WVdfKS_ffeEVljyxt0-88" value="DB Security group" style="fillColor=none;strokeColor=#DD3522;verticalAlign=top;fontStyle=0;fontColor=#DD3522;" vertex="1" parent="V4WVdfKS_ffeEVljyxt0-3">
          <mxGeometry x="90" y="620" width="560" height="100" as="geometry" />
        </mxCell>
        <mxCell id="V4WVdfKS_ffeEVljyxt0-91" value="Read Replica" style="text;html=1;strokeColor=none;fillColor=none;align=center;verticalAlign=middle;whiteSpace=wrap;rounded=0;fontColor=#000000;" vertex="1" parent="V4WVdfKS_ffeEVljyxt0-3">
          <mxGeometry x="560.81" y="693.75" width="79.19" height="20" as="geometry" />
        </mxCell>
        <mxCell id="V4WVdfKS_ffeEVljyxt0-14" value="" style="endArrow=classic;html=1;rounded=0;exitX=0.5;exitY=1;exitDx=0;exitDy=0;exitPerimeter=0;" edge="1" parent="1" source="V4WVdfKS_ffeEVljyxt0-11">
          <mxGeometry width="50" height="50" relative="1" as="geometry">
            <mxPoint x="490" y="231.5" as="sourcePoint" />
            <mxPoint x="420" y="260" as="targetPoint" />
          </mxGeometry>
        </mxCell>
        <mxCell id="V4WVdfKS_ffeEVljyxt0-69" value="" style="endArrow=classic;html=1;rounded=0;fontColor=#000000;exitX=0;exitY=0.75;exitDx=0;exitDy=0;exitPerimeter=0;" edge="1" parent="1" source="V4WVdfKS_ffeEVljyxt0-35" target="V4WVdfKS_ffeEVljyxt0-6">
          <mxGeometry width="50" height="50" relative="1" as="geometry">
            <mxPoint x="80" y="600" as="sourcePoint" />
            <mxPoint x="120" y="550" as="targetPoint" />
            <Array as="points">
              <mxPoint x="80" y="595" />
              <mxPoint x="80" y="560" />
              <mxPoint x="80" y="380" />
              <mxPoint x="80" y="205" />
            </Array>
          </mxGeometry>
        </mxCell>
        <mxCell id="V4WVdfKS_ffeEVljyxt0-73" value="Amazon Cloudfront &lt;br&gt;CDN" style="text;html=1;align=center;verticalAlign=middle;resizable=0;points=[];autosize=1;strokeColor=none;fillColor=none;fontColor=#000000;" vertex="1" parent="1">
          <mxGeometry x="450" y="185" width="120" height="30" as="geometry" />
        </mxCell>
      </root>
    </mxGraphModel>
  </diagram>
</mxfile>
